<svg xmlns="http://www.w3.org/2000/svg" width="260" height="75" viewBox="0 0 260 75">
    <defs>
        <linearGradient id="prefix__a" x1="67.584%" x2="38.366%" y1="16.087%" y2="83.234%">
            <stop offset="0%" stop-color="#CAF170"/>
            <stop offset="100%" stop-color="#85FFBC"/>
        </linearGradient>
        <linearGradient id="prefix__b" x1="33.887%" x2="57.837%" y1="67.446%" y2="11.369%">
            <stop offset="0%" stop-color="#01C4B7"/>
            <stop offset="100%" stop-color="#5EE57D"/>
        </linearGradient>
        <linearGradient id="prefix__c" x1="82%" x2="50%" y1="50%" y2="100%">
            <stop offset="0%" stop-color="#7765F6"/>
            <stop offset="100%" stop-color="#5548E7"/>
        </linearGradient>
    </defs>
    <g fill="none" fill-rule="evenodd">
        <path fill="url(#prefix__a)" d="M29.058.448c.118.094.225.201.319.319l7.089 8.861c.895 1.12.895 2.71 0 3.83L27.807 24.28 17.565 62.623 2.24 43.465c-2.985-3.731-2.985-9.033 0-12.764L26.186.767c.705-.881 1.99-1.024 2.872-.32z"/>
        <path fill="url(#prefix__b)" d="M27.781 24.313l8.685 10.855c.895 1.12.895 2.71 0 3.83L27.78 49.853l.077 3.743c.175 9.372.15 14.821-.077 16.346-.254 1.718-1.316 2.202-3.185 1.452L12.455 56.235c-2.985-3.731-2.985-9.033 0-12.764L27.78 24.313z"/>
        <path fill="url(#prefix__c)" d="M27.781 49.853l8.685 10.856c.895 1.119.895 2.71 0 3.829l-7.09 8.861c-.704.881-1.99 1.024-2.871.32-.118-.095-.225-.202-.32-.32l-3.514-4.394c-2.985-3.73-2.985-9.033 0-12.764l5.11-6.388z"/>
        <path fill="#000" d="M27.781 24.313l2.044 2.554-15.327 19.158c-2.982 3.728-2.985 9.024-.008 12.754l-2.035-2.544c-2.985-3.731-2.985-9.033 0-12.764L27.78 24.313z" opacity=".12"/>
        <path fill="#000" d="M29.824 52.407l-5.11 6.388c-2.982 3.728-2.985 9.024-.008 12.754l-2.035-2.544c-2.92-3.65-2.984-8.803-.19-12.518l.19-.246 5.11-6.388 2.043 2.554z" opacity=".14"/>
        <path fill="#3A01C4" fill-rule="nonzero" d="M59.093 48.689V23.604h-3.415V48.69h3.415zm12.071.348c3.102 0 6.03-1.393 7.46-4.11l-2.72-1.36c-.906 1.499-2.683 2.3-4.565 2.3-2.65 0-4.601-1.29-5.054-3.937H79.25c.034-.523.07-1.01.07-1.463 0-5.122-3.521-8.397-8.157-8.397-4.635 0-8.4 3.275-8.4 8.432 0 5.156 3.695 8.535 8.4 8.535zm4.74-9.86H66.32c.488-2.682 2.37-3.936 4.88-3.936 2.509 0 4.39 1.393 4.705 3.937zm14.058 9.86c2.196 0 4.531-.94 5.612-2.787v2.439h3.415v-16.27h-3.415v2.404c-1.08-1.847-3.346-2.753-5.647-2.753-4.391 0-8.05 3.275-8.05 8.466 0 5.157 3.659 8.501 8.085 8.501zm.384-3.24c-2.789 0-5.054-2.264-5.054-5.295 0-3.066 2.265-5.192 5.054-5.192 2.51 0 5.193 1.917 5.193 5.192 0 3.275-2.44 5.295-5.193 5.295zm20.4 3.24c2.196 0 4.532-.94 5.612-2.787v2.439h3.416V23.604h-3.416v11.219c-1.08-1.847-3.346-2.753-5.646-2.753-4.392 0-8.051 3.275-8.051 8.466 0 5.157 3.66 8.501 8.086 8.501zm.384-3.24c-2.788 0-5.054-2.264-5.054-5.295 0-3.066 2.266-5.192 5.054-5.192 2.51 0 5.193 1.917 5.193 5.192 0 3.275-2.44 5.295-5.193 5.295zm18.345 3.24c3.346 0 6.413-1.811 6.413-4.912 0-1.742-.767-3.902-4.252-4.773l-2.475-.592c-1.01-.244-1.952-.802-1.952-1.812 0-1.115.976-1.986 2.405-1.986 1.22 0 2.44.801 2.44 1.986h3.276c0-3.414-2.997-4.878-5.786-4.878-3.38 0-5.785 2.126-5.785 4.773 0 2.404 1.394 3.972 4.426 4.773l2.196.523c1.22.279 2.091.836 2.091 1.916 0 1.22-1.15 2.09-3.032 2.09-1.847 0-2.998-1.114-2.998-2.403h-3.171c.07 3.38 3.171 5.295 6.204 5.295zm23.13-.348V35.276h7.717v13.413h3.416v-16.27h-11.132v-1.882c-.035-2.055.732-3.693 3.555-3.693h.732v-3.24h-1.36c-4.426 0-6.343 2.892-6.343 7.317v1.498h-3.137v2.857h3.137v13.413h3.416zm9.503-20.368c1.332 0 2.413-1.034 2.413-2.412s-1.08-2.412-2.413-2.412c-1.297 0-2.413 1.034-2.413 2.412s1.116 2.412 2.413 2.412zm9.727 20.368v-8.675c0-3.38 2.58-4.564 4.706-4.564 2.09 0 3.694 1.533 3.694 4.18v9.059h3.416v-9.302c.035-4.634-2.405-7.317-6.518-7.317-1.743 0-4.357.871-5.298 2.857V32.42h-3.415v16.27h3.415zm23.364.348c2.196 0 4.53-.94 5.611-2.787v2.439h3.416v-16.27h-3.416v2.404c-1.08-1.847-3.346-2.753-5.646-2.753-4.391 0-8.051 3.275-8.051 8.466 0 5.157 3.66 8.501 8.086 8.501zm.383-3.24c-2.788 0-5.053-2.264-5.053-5.295 0-3.066 2.265-5.192 5.053-5.192 2.51 0 5.194 1.917 5.194 5.192 0 3.275-2.44 5.295-5.194 5.295zm16.742 2.892v-8.675c0-3.38 2.579-4.564 4.705-4.564 2.091 0 3.694 1.533 3.694 4.18v9.059h3.416v-9.302c.035-4.634-2.405-7.317-6.518-7.317-1.742 0-4.356.871-5.297 2.857V32.42h-3.416v16.27h3.416zm23.325.313c2.649 0 4.914-1.08 6.343-2.787l-2.265-2.125c-.941 1.045-2.37 1.707-4.008 1.707-3.033 0-5.438-2.16-5.438-5.26 0-3.101 2.405-5.261 5.438-5.261 1.638 0 3.067.662 4.008 1.707l2.265-2.125c-1.429-1.708-3.694-2.788-6.343-2.788-4.705 0-8.783 3.31-8.783 8.466 0 5.157 4.078 8.466 8.783 8.466zm16.195.035c3.102 0 6.03-1.393 7.459-4.11l-2.719-1.36c-.906 1.499-2.683 2.3-4.565 2.3-2.65 0-4.601-1.29-5.054-3.937h12.965c.035-.523.07-1.01.07-1.463 0-5.122-3.52-8.397-8.156-8.397-4.635 0-8.4 3.275-8.4 8.432 0 5.156 3.695 8.535 8.4 8.535zm4.74-9.86H247c.488-2.682 2.37-3.936 4.88-3.936 2.509 0 4.39 1.393 4.704 3.937z"/>
    </g>
</svg>
