<svg xmlns="http://www.w3.org/2000/svg" width="96" height="96" viewBox="0 0 96 96">
    <defs>
        <linearGradient id="prefix__a" x1="100%" x2="16.92%" y1="16.087%" y2="83.234%">
            <stop offset="0%" stop-color="#CAF170"/>
            <stop offset="100%" stop-color="#85FFBC"/>
        </linearGradient>
        <linearGradient id="prefix__b" x1="0%" x2="74.319%" y1="73.425%" y2="11.369%">
            <stop offset="0%" stop-color="#00B9AE"/>
            <stop offset="100%" stop-color="#4DE36F"/>
        </linearGradient>
    </defs>
    <g fill="none" fill-rule="evenodd">
        <path fill="url(#prefix__a)" d="M48 18c16.569 0 30 13.431 30 30 0 16.569-13.431 30-30 30-16.569 0-30-13.431-30-30 0-16.569 13.431-30 30-30zm0 18c-6.627 0-12 5.373-12 12s5.373 12 12 12 12-5.373 12-12-5.373-12-12-12z"/>
        <path fill="url(#prefix__b)" fill-rule="nonzero" d="M70.386 2.522c2.184 1.972 3.365 4.822 3.215 7.762l-.313 6.13c-.17 3.31 2.377 6.13 5.686 6.298.204.01.408.01.612 0l6.13-.313c5.397-.276 9.996 3.876 10.271 9.272.15 2.94-1.03 5.79-3.215 7.762l-4.556 4.113c-2.46 2.221-2.653 6.015-.433 8.475.137.151.281.296.433.433l4.556 4.113c4.011 3.621 4.327 9.808.706 13.82-1.972 2.183-4.822 3.364-7.761 3.214l-6.13-.313c-3.31-.17-6.13 2.377-6.3 5.686-.01.204-.01.408 0 .612l.314 6.13c.276 5.397-3.876 9.996-9.272 10.271-2.94.15-5.79-1.03-7.762-3.215l-4.113-4.556c-2.221-2.46-6.015-2.653-8.475-.433-.151.137-.296.281-.433.433l-4.113 4.556c-3.621 4.011-9.808 4.327-13.82.706-2.183-1.972-3.364-4.822-3.214-7.761l.313-6.13c.17-3.31-2.377-6.13-5.686-6.3-.204-.01-.408-.01-.612 0l-6.13.314C4.887 73.877.288 69.725.013 64.329c-.15-2.94 1.03-5.79 3.215-7.762l4.556-4.113c2.46-2.221 2.653-6.015.433-8.475-.137-.151-.281-.296-.433-.433l-4.556-4.113c-4.011-3.621-4.327-9.808-.706-13.82 1.972-2.183 4.822-3.364 7.762-3.214l6.13.313c3.31.17 6.13-2.377 6.298-5.686.01-.204.01-.408 0-.612l-.313-6.13C22.123 4.887 26.275.288 31.671.013c2.94-.15 5.79 1.03 7.762 3.215l4.113 4.556c2.221 2.46 6.015 2.653 8.475.433.151-.137.296-.281.433-.433l4.113-4.556c3.621-4.011 9.808-4.327 13.82-.706zm-10.85 3.386l-4.113 4.556c-.228.253-.47.494-.722.722-4.1 3.7-10.423 3.378-14.124-.722l-4.113-4.556c-1.166-1.291-2.851-1.99-4.588-1.9-3.19.163-5.645 2.881-5.482 6.071l.313 6.13c.017.34.017.681 0 1.021-.282 5.516-4.982 9.759-10.497 9.477l-6.13-.313c-1.738-.089-3.423.61-4.589 1.9-2.14 2.372-1.954 6.03.417 8.17l4.556 4.113c.253.228.494.47.722.722 3.7 4.1 3.378 10.423-.722 14.124l-4.556 4.113c-1.291 1.166-1.99 2.851-1.9 4.588.163 3.19 2.881 5.645 6.071 5.482l6.13-.313c.34-.017.681-.017 1.021 0 5.516.282 9.759 4.982 9.477 10.497l-.313 6.13c-.089 1.738.61 3.423 1.9 4.59 2.372 2.14 6.03 1.953 8.17-.418l4.113-4.556c.228-.253.47-.494.722-.722 4.1-3.7 10.423-3.378 14.124.722l4.113 4.556c1.166 1.291 2.851 1.99 4.588 1.9 3.19-.163 5.645-2.881 5.482-6.071l-.313-6.13c-.017-.34-.017-.681 0-1.021.282-5.516 4.982-9.759 10.497-9.477l6.13.313c1.738.089 3.423-.609 4.59-1.9 2.14-2.372 1.953-6.03-.418-8.17l-4.556-4.113c-.253-.228-.494-.47-.722-.722-3.7-4.1-3.378-10.423.722-14.124l4.556-4.113c1.291-1.166 1.99-2.851 1.9-4.588-.163-3.19-2.881-5.645-6.071-5.482l-6.13.313c-.34.017-.681.017-1.021 0-5.516-.282-9.759-4.982-9.477-10.497l.313-6.13c.089-1.738-.609-3.423-1.9-4.589-2.372-2.14-6.03-1.954-8.17.417zM48 34c7.732 0 14 6.268 14 14s-6.268 14-14 14-14-6.268-14-14 6.268-14 14-14zm0 4c-5.523 0-10 4.477-10 10s4.477 10 10 10 10-4.477 10-10-4.477-10-10-10z"/>
    </g>
</svg>
