<svg xmlns="http://www.w3.org/2000/svg" width="96" height="96" viewBox="0 0 96 96">
    <defs>
        <linearGradient id="prefix__a" x1="84.722%" x2="27.028%" y1="16.087%" y2="83.234%">
            <stop offset="0%" stop-color="#CAF170"/>
            <stop offset="100%" stop-color="#85FFBC"/>
        </linearGradient>
        <linearGradient id="prefix__b" x1="0%" x2="74.319%" y1="73.425%" y2="11.369%">
            <stop offset="0%" stop-color="#00B9AE"/>
            <stop offset="100%" stop-color="#4DE36F"/>
        </linearGradient>
    </defs>
    <g fill="none" fill-rule="evenodd">
        <path fill="url(#prefix__a)" d="M48 10c16.569 0 30 13.431 30 30v12c0 16.569-13.431 30-30 30-16.569 0-30-13.431-30-30V40c0-16.569 13.431-30 30-30z"/>
        <path fill="url(#prefix__b)" fill-rule="nonzero" d="M48 0c20.052 0 36.658 14.755 39.553 34H88c4.418 0 8 3.582 8 8v8c0 4.418-3.582 8-8 8h-2c-1.105 0-2-.895-2-2V40C84 20.118 67.882 4 48 4 28.339 4 12.359 19.762 12.006 39.339L12 40v12c0 18.396 13.85 34.774 28.364 35.934C41.21 85.637 43.414 84 46 84h4c3.314 0 6 2.686 6 6s-2.686 6-6 6h-4c-2.634 0-4.871-1.697-5.679-4.058-15.13-1.04-29.239-15.987-31.88-33.94L8 58c-4.418 0-8-3.582-8-8v-8c0-4.418 3.582-8 8-8h.447C11.342 14.755 27.947 0 48 0zm2 88h-4c-1.105 0-2 .895-2 2s.895 2 2 2h4c1.105 0 2-.895 2-2s-.895-2-2-2zm10.235-32.941c.52-.975 1.732-1.344 2.706-.824.975.52 1.344 1.732.824 2.706C60.824 62.456 54.745 66 48 66c-6.744 0-12.824-3.544-15.765-9.059-.52-.974-.15-2.186.824-2.706s2.186-.15 2.706.824C38 59.252 42.714 62 48 62s9.999-2.748 12.235-6.941zM8 38c-2.21 0-4 1.79-4 4v8c0 2.21 1.79 4 4 4V38zm80 0v16c2.21 0 4-1.79 4-4v-8c0-2.21-1.79-4-4-4z"/>
    </g>
</svg>
