<svg xmlns="http://www.w3.org/2000/svg" width="84" height="84" viewBox="0 0 84 84">
    <defs>
        <linearGradient id="prefix__a" x1="100%" x2="16.92%" y1="33.971%" y2="65.708%">
            <stop offset="0%" stop-color="#CAF170"/>
            <stop offset="100%" stop-color="#85FFBC"/>
        </linearGradient>
        <linearGradient id="prefix__b" x1="0%" x2="74.319%" y1="73.425%" y2="11.369%">
            <stop offset="0%" stop-color="#00B9AE"/>
            <stop offset="100%" stop-color="#4DE36F"/>
        </linearGradient>
    </defs>
    <g fill="none" fill-rule="evenodd">
        <path fill="url(#prefix__a)" d="M14 30h56c2.21 0 4 1.79 4 4v36c0 2.21-1.79 4-4 4H14c-2.21 0-4-1.79-4-4V34c0-2.21 1.79-4 4-4z"/>
        <path fill="url(#prefix__b)" fill-rule="nonzero" d="M74 20c5.523 0 10 4.477 10 10v44c0 5.523-4.477 10-10 10H10C4.477 84 0 79.523 0 74V30c0-5.523 4.477-10 10-10h64zm0 4H10c-3.314 0-6 2.686-6 6v44c0 3.314 2.686 6 6 6h64c3.314 0 6-2.686 6-6V30c0-3.314-2.686-6-6-6zM61.48 40.655c.743.817.683 2.082-.135 2.825l-22 20c-.79.718-2.004.69-2.76-.066l-10-10c-.78-.78-.78-2.047 0-2.828.782-.781 2.048-.781 2.83 0l8.65 8.651 20.59-18.717c.817-.743 2.082-.683 2.825.135zM77.999 10c1.105 0 2.001.895 2.001 2 0 1.026-.773 1.871-1.768 1.987L78 14H6C4.896 14 4 13.105 4 12c0-1.026.773-1.871 1.768-1.987L6 10H78zM78 0c1.105 0 2 .895 2 2 0 1.026-.772 1.871-1.767 1.987L78 4H6c-1.105 0-2-.895-2-2C4 .974 4.772.129 5.767.013L6 0h72z"/>
    </g>
</svg>
