<svg xmlns="http://www.w3.org/2000/svg" width="80" height="96" viewBox="0 0 80 96">
    <defs>
        <linearGradient id="prefix__a" x1="82.871%" x2="28.253%" y1="16.087%" y2="83.234%">
            <stop offset="0%" stop-color="#CAF170"/>
            <stop offset="100%" stop-color="#85FFBC"/>
        </linearGradient>
        <linearGradient id="prefix__b" x1="15.278%" x2="66.888%" y1="73.425%" y2="11.369%">
            <stop offset="0%" stop-color="#00B9AE"/>
            <stop offset="100%" stop-color="#4DE36F"/>
        </linearGradient>
    </defs>
    <g fill="none" fill-rule="evenodd">
        <path fill="url(#prefix__a)" d="M40 10c11.113 0 21.113 1.333 30 4v23.602c0 19.788-11.579 37.805-29.74 46.276L40 84l-.26-.122C21.579 75.408 10 57.39 10 37.602V14c8.887-2.667 18.887-4 30-4zm2.074 14.424c-1.46-.903-3.302-.317-4.113 1.308l-9.51 19.003c-.296.591-.451 1.256-.451 1.932 0 2.209 1.625 4 3.63 4h4.74v9.966c0 1.223.596 2.349 1.556 2.943 1.46.903 3.302.317 4.113-1.308l9.51-19.003c.296-.591.451-1.256.451-1.932 0-2.209-1.625-4-3.63-4h-4.74v-9.966c0-1.223-.596-2.349-1.556-2.943z"/>
        <path fill="url(#prefix__b)" fill-rule="nonzero" d="M40 0c16.93 0 29.864 2.042 38.838 6.184C79.546 6.511 80 7.22 80 8v30.03c0 23.96-13.805 45.775-35.459 56.032l-3.685 1.745c-.542.257-1.17.257-1.712 0l-3.685-1.745C13.805 83.805 0 61.99 0 38.03V8c0-.78.454-1.489 1.162-1.816C10.136 2.042 23.069 0 40 0zm0 4C24.34 4 12.33 5.784 4 9.303V38.03c0 22.414 12.915 42.822 33.171 52.417L40 91.787l2.829-1.34C63.085 80.852 76 60.444 76 38.03V9.303C67.67 5.784 55.66 4 40 4zm3.126 18.723c1.564.968 2.503 2.745 2.503 4.644v7.966h2.742c3.154 0 5.629 2.728 5.629 6 0 .985-.227 1.956-.663 2.827l-9.509 19.001c-1.324 2.653-4.468 3.653-6.954 2.116-1.564-.968-2.503-2.745-2.503-4.644v-7.966h-2.742c-3.154 0-5.629-2.728-5.629-6 0-.985.227-1.956.663-2.827l9.509-19.001c1.324-2.653 4.468-3.653 6.954-2.116zm-3.376 3.904L30.24 45.63c-.156.312-.24.67-.24 1.037 0 1.145.775 2 1.63 2h4.74c1.105 0 2 .895 2 2v9.966c0 .546.252 1.022.608 1.242.435.268.973.097 1.272-.502l9.51-19.003c.156-.312.24-.67.24-1.037 0-1.145-.775-2-1.63-2h-4.74c-1.105 0-2-.895-2-2v-9.966c0-.546-.252-1.022-.608-1.242-.435-.268-.973-.097-1.272.502z"/>
    </g>
</svg>
