<svg xmlns="http://www.w3.org/2000/svg" width="96" height="96" viewBox="0 0 96 96">
    <defs>
        <linearGradient id="prefix__a" x1="100%" x2="16.92%" y1="16.087%" y2="83.234%">
            <stop offset="0%" stop-color="#CAF170"/>
            <stop offset="100%" stop-color="#85FFBC"/>
        </linearGradient>
        <linearGradient id="prefix__b" x1="0%" x2="74.319%" y1="73.425%" y2="11.369%">
            <stop offset="0%" stop-color="#00B9AE"/>
            <stop offset="100%" stop-color="#4DE36F"/>
        </linearGradient>
    </defs>
    <g fill="none" fill-rule="evenodd">
        <circle cx="48" cy="48" r="38" fill="url(#prefix__a)"/>
        <path fill="url(#prefix__b)" fill-rule="nonzero" d="M48 0c26.51 0 48 21.49 48 48S74.51 96 48 96 0 74.51 0 48 21.49 0 48 0zm0 4C23.7 4 4 23.7 4 48s19.7 44 44 44 44-19.7 44-44S72.3 4 48 4zm0 6c1.026 0 1.871.772 1.987 1.767L50 12l.002 12.02c5.253.106 10.351.627 15.13 1.52-.918-3.32-2.041-6.394-3.349-9.139-.475-.997-.051-2.19.946-2.666.997-.475 2.19-.051 2.665.946 1.672 3.51 3.056 7.49 4.119 11.805 4.315 1.064 8.297 2.448 11.806 4.12.997.475 1.42 1.668.946 2.665-.475.997-1.669 1.42-2.666.946-2.745-1.308-5.818-2.431-9.14-3.35.895 4.78 1.415 9.88 1.52 15.133H84c1.105 0 2 .895 2 2s-.895 2-2 2l-12.02.002c-.106 5.253-.627 10.351-1.52 15.13 3.32-.918 6.394-2.041 9.139-3.349.997-.475 2.19-.051 2.666.946.475.997.051 2.19-.946 2.665-3.51 1.672-7.49 3.056-11.805 4.119-1.064 4.315-2.448 8.297-4.12 11.806-.475.997-1.668 1.42-2.665.946-.997-.475-1.42-1.669-.946-2.666 1.308-2.745 2.431-5.818 3.35-9.14-4.78.894-9.878 1.415-15.131 1.52L50 84c0 1.105-.895 2-2 2-1.026 0-1.871-.772-1.987-1.767L46 84V71.98c-5.254-.106-10.353-.626-15.132-1.52.918 3.32 2.041 6.394 3.349 9.139.475.997.051 2.19-.946 2.666-.997.475-2.19.051-2.665-.946-1.672-3.51-3.056-7.49-4.119-11.805-4.315-1.064-8.297-2.448-11.806-4.12-.997-.475-1.42-1.668-.946-2.665.475-.997 1.669-1.42 2.666-.946 2.745 1.308 5.818 2.431 9.14 3.35-.894-4.78-1.415-9.878-1.52-15.131L12 50c-1.105 0-2-.895-2-2s.895-2 2-2h12.02c.106-5.254.626-10.353 1.52-15.132-3.32.918-6.394 2.041-9.139 3.349-.997.475-2.19.051-2.666-.946-.475-.997-.051-2.19.946-2.665 3.51-1.672 7.49-3.056 11.805-4.119 1.064-4.315 2.448-8.297 4.12-11.806.475-.997 1.668-1.42 2.665-.946.997.475 1.42 1.669.946 2.666-1.308 2.745-2.431 5.818-3.35 9.14 4.78-.895 9.88-1.415 15.133-1.52V12c0-1.105.895-2 2-2zm-2.002 40l-17.977.003c.119 5.672.742 11.141 1.805 16.171 5.03 1.063 10.5 1.686 16.173 1.805L45.998 50zm4.004 0v17.979c5.673-.119 11.142-.742 16.172-1.805 1.063-5.03 1.686-10.499 1.805-16.171L50.002 50zm-4.003-21.98c-5.673.12-11.143.743-16.173 1.806-1.063 5.03-1.686 10.5-1.805 16.173L45.998 46l.001-17.98zm4.004.001L50.002 46h17.977c-.119-5.674-.742-11.144-1.805-16.174-5.03-1.063-10.499-1.686-16.171-1.805z"/>
    </g>
</svg>
