<svg xmlns="http://www.w3.org/2000/svg" width="96" height="96" viewBox="0 0 96 96">
    <defs>
        <linearGradient id="prefix__a" x1="100%" x2="16.92%" y1="16.087%" y2="83.234%">
            <stop offset="0%" stop-color="#CAF170"/>
            <stop offset="100%" stop-color="#85FFBC"/>
        </linearGradient>
        <linearGradient id="prefix__b" x1="0%" x2="74.319%" y1="73.425%" y2="11.369%">
            <stop offset="0%" stop-color="#00B9AE"/>
            <stop offset="100%" stop-color="#4DE36F"/>
        </linearGradient>
    </defs>
    <g fill="none" fill-rule="evenodd">
        <path fill="url(#prefix__a)" d="M48 10c20.987 0 38 17.013 38 38S68.987 86 48 86 10 68.987 10 48s17.013-38 38-38zm1.58 14.37c-1.768-.873-3.91-.147-4.782 1.62l-4.236 8.585c-.78 1.58-2.288 2.676-4.032 2.929l-9.473 1.376c-.777.113-1.495.48-2.043 1.041-1.377 1.412-1.348 3.673.064 5.049l6.855 6.681c1.262 1.23 1.838 3.003 1.54 4.74l-1.618 9.435c-.133.774-.007 1.57.359 2.265.917 1.745 3.076 2.416 4.82 1.498l8.474-4.454c1.56-.82 3.424-.82 4.984 0l8.473 4.454c.695.366 1.49.492 2.264.359 1.944-.333 3.249-2.179 2.916-4.122l-1.618-9.435c-.298-1.737.278-3.51 1.54-4.74l6.854-6.681c.563-.548.929-1.266 1.041-2.043.284-1.951-1.068-3.763-3.02-4.047l-9.472-1.376c-1.744-.253-3.252-1.349-4.032-2.93L51.2 25.992c-.347-.704-.917-1.274-1.621-1.622z"/>
        <path fill="url(#prefix__b)" fill-rule="nonzero" d="M48 0c26.51 0 48 21.49 48 48S74.51 96 48 96 0 74.51 0 48 21.49 0 48 0zm0 4C23.7 4 4 23.7 4 48s19.7 44 44 44 44-19.7 44-44S72.3 4 48 4zm2.465 18.576c1.098.542 1.988 1.431 2.53 2.53l4.236 8.583c.489.99 1.434 1.677 2.526 1.836L69.23 36.9c3.045.443 5.154 3.27 4.712 6.313-.177 1.213-.747 2.333-1.625 3.188l-6.854 6.682c-.791.77-1.152 1.88-.965 2.97l1.618 9.434c.52 3.032-1.516 5.911-4.548 6.431-1.208.207-2.45.01-3.534-.56l-8.473-4.454c-.977-.514-2.145-.514-3.123 0l-8.472 4.454c-2.723 1.432-6.091.385-7.523-2.338-.57-1.084-.766-2.326-.56-3.533l1.619-9.435c.186-1.088-.174-2.199-.965-2.97l-6.855-6.68c-2.203-2.148-2.248-5.675-.1-7.878.855-.877 1.975-1.448 3.187-1.624l9.473-1.376c1.093-.159 2.038-.845 2.526-1.836l4.237-8.583c1.361-2.759 4.701-3.891 7.46-2.53zm-3.873 4.3l-4.237 8.584c-1.071 2.17-3.142 3.675-5.538 4.023l-9.473 1.377c-.341.05-.657.21-.898.458-.605.62-.593 1.614.028 2.22l6.855 6.681c1.733 1.69 2.524 4.124 2.115 6.51l-1.618 9.435c-.058.34-.003.69.158.996.403.767 1.353 1.062 2.12.659l8.473-4.454c2.143-1.127 4.703-1.127 6.845 0l8.473 4.454c.306.16.656.216.996.158.855-.147 1.43-.959 1.283-1.813l-1.619-9.435c-.409-2.386.382-4.82 2.116-6.51l6.854-6.681c.248-.241.409-.557.458-.899.125-.858-.47-1.655-1.328-1.78l-9.473-1.376c-2.395-.348-4.466-1.852-5.538-4.023l-4.236-8.584c-.153-.31-.404-.56-.713-.713-.778-.384-1.72-.065-2.103.713z"/>
    </g>
</svg>
